<svg xmlns="http://www.w3.org/2000/svg" xmlns:xlink="http://www.w3.org/1999/xlink" width="103.8" height="41.9" viewBox="0 0 103.8 41.9"><defs><linearGradient id="a" x1="17.74" y1="28.14" x2="17.74" y2="3.71" gradientUnits="userSpaceOnUse"><stop offset="0" stop-color="#5e3e15"/><stop offset="0.42" stop-color="#5e3e15"/><stop offset="0.57" stop-color="#5c4122"/><stop offset="0.85" stop-color="#564743"/><stop offset="0.89" stop-color="#554848"/></linearGradient><linearGradient id="b" x1="35.52" y1="28.14" x2="35.52" y2="16" xlink:href="#a"/><linearGradient id="c" x1="49.17" y1="28.07" x2="49.17" y2="0" xlink:href="#a"/><linearGradient id="d" x1="56.55" y1="41.87" x2="56.55" y2="0.28" xlink:href="#a"/><linearGradient id="e" x1="78.34" y1="28.07" x2="78.34" y2="16" xlink:href="#a"/><linearGradient id="f" x1="94.96" y1="28.07" x2="94.96" y2="16" xlink:href="#a"/></defs><title>del-cur-ele2</title><path d="M3.2,28.1a5.1,5.1,0,0,1-2.5-.4.9.9,0,0,1-.7-.9c0-.3.3-.6.9-1a6.5,6.5,0,0,1,2.7-.5l2,.2,2.9.8h.2a24.4,24.4,0,0,0,4.1-3.2c1.5-1.5,3.4-3.6,5.6-6.3l3-3.6c1-1.1,2.1-2.3,3.4-3.5a13.7,13.7,0,0,1,2.6-2A7.7,7.7,0,0,0,24,5a12.6,12.6,0,0,0-4.9-.9,13.4,13.4,0,0,0-4,.7,16.2,16.2,0,0,0-3.7,1.9,18.1,18.1,0,0,0-3,2.5,16.8,16.8,0,0,0-2,2.9,6.8,6.8,0,0,0-.7,2.6,2.6,2.6,0,0,0,.9,2.1,3.7,3.7,0,0,0,2.5.7,9.2,9.2,0,0,0,2.5-.5,18.1,18.1,0,0,0,2.9-1.7A14.9,14.9,0,0,0,17.3,13a17.8,17.8,0,0,0,2.1-2.7,5.5,5.5,0,0,0,.9-2.9c.1-.3.1-.4.2-.4s.2.1.2.4a9.2,9.2,0,0,1-.9,3.8,14.4,14.4,0,0,1-2.7,3.4,13.4,13.4,0,0,1-3.7,2.5A11.2,11.2,0,0,1,9,18a5.2,5.2,0,0,1-2.1-.4,5.1,5.1,0,0,1-1.6-1.3,3.4,3.4,0,0,1-.6-2,7.6,7.6,0,0,1,1.1-3.8A12.6,12.6,0,0,1,8.9,7a16.1,16.1,0,0,1,4.5-2.4A17.3,17.3,0,0,1,19,3.7a12.5,12.5,0,0,1,5.3,1A8.5,8.5,0,0,1,28,7.3a30.2,30.2,0,0,1,3.6-1.8,10.2,10.2,0,0,1,3.6-.8h.3a.3.3,0,0,1-.1.2h-.5a9.9,9.9,0,0,0-3.2,1,14.1,14.1,0,0,0-3.1,2.1,9.4,9.4,0,0,1,1.3,5.1,14.5,14.5,0,0,1-1.2,5.9,14.5,14.5,0,0,1-3.4,4.7A15.2,15.2,0,0,1,20.5,27a15.5,15.5,0,0,1-5.6,1.1l-2.6-.2-2.8-.7A20.8,20.8,0,0,1,3.2,28.1Zm.3-.5,2.2-.2a7.9,7.9,0,0,0,2.2-.6l-2.2-.5a7.8,7.8,0,0,0-2.2-.2l-2.3.2c-.5.2-.7.3-.7.5S1.5,27.6,3.5,27.6Zm11.4-.1a12.9,12.9,0,0,0,5.1-1,16.1,16.1,0,0,0,4.5-3A13.4,13.4,0,0,0,27.6,19a13.2,13.2,0,0,0,1.2-5.7,10.6,10.6,0,0,0-.9-4.5,30,30,0,0,0-3.8,4.6c-1.4,1.9-2.7,3.8-4.1,5.5a28.4,28.4,0,0,1-4.4,4.7,18.2,18.2,0,0,1-5.3,3.3l2,.4A10.2,10.2,0,0,0,14.9,27.5Z" style="fill:url(#a)"/><path d="M31.8,28.1a3,3,0,0,1-2.5-.9,3.9,3.9,0,0,1-.8-2.2,9.5,9.5,0,0,1,.4-2.1,8.7,8.7,0,0,1,.9-1.7,13.5,13.5,0,0,1,2.8-3,11.4,11.4,0,0,1,3-1.7,8.5,8.5,0,0,1,2.5-.5,2.8,2.8,0,0,1,1.5.3,2,2,0,0,1,.5.9,2.2,2.2,0,0,1-.8,1.5,7.8,7.8,0,0,1-2.7,2,36.4,36.4,0,0,1-5.5,2.2,12.2,12.2,0,0,0-.8,1.7,6.9,6.9,0,0,0-.2,1.3,1.6,1.6,0,0,0,.6,1.3,1.8,1.8,0,0,0,1.3.4,8.1,8.1,0,0,0,3.1-.6,10.1,10.1,0,0,0,2.6-1.6,12.9,12.9,0,0,0,2.1-1.9,7.3,7.3,0,0,0,1.5-1.7l.8-.9.4.3-.9,1L40,24l-2.2,1.9A8.5,8.5,0,0,1,35,27.5,8.7,8.7,0,0,1,31.8,28.1Zm-.2-5.8a24,24,0,0,0,5.3-2.5c1.3-.8,2-1.6,2-2.4s-.3-1-.9-1a4,4,0,0,0-2.6,1.3,35.5,35.5,0,0,0-3.2,3.7Z" style="fill:url(#b)"/><path d="M40.9,28.1a2.8,2.8,0,0,1-1.3-.4,1.6,1.6,0,0,1-.5-1.1,2.9,2.9,0,0,1,.2-.9,2.1,2.1,0,0,1,.5-1.1,9.4,9.4,0,0,1,1.2-2l2.2-3.2L56.8,0h2.4L44.8,20.1c-1.1,1.4-1.9,2.6-2.5,3.5A16.4,16.4,0,0,0,41,25.5l-.6,1a4.3,4.3,0,0,1-.1.5q0,.6.9.6a4.5,4.5,0,0,0,2.1-.6,11.9,11.9,0,0,0,2.3-1.6,12.9,12.9,0,0,0,2.1-1.9l1.6-1.7a3.6,3.6,0,0,1,.9-.9l.3.3-.9,1c-.5.5-1,1.1-1.7,1.7a21.9,21.9,0,0,1-2.2,2,15.8,15.8,0,0,1-2.4,1.5A4.9,4.9,0,0,1,40.9,28.1Z" style="fill:url(#c)"/><path d="M43,41.9a2.1,2.1,0,0,1-1.3-.5,2.2,2.2,0,0,1-.5-1.2,5.5,5.5,0,0,1,.3-1.7,21.5,21.5,0,0,1,1.1-2.4c.6-1.1,1.4-2.4,2.5-4.1s2.5-3.9,4.3-6.5L51,23a6,6,0,0,1-.8-1.6,7.2,7.2,0,0,1-.1-1.3,1.9,1.9,0,0,1,.4-.9.9.9,0,0,1,.8-.4.7.7,0,0,1,.6.3,1,1,0,0,1,.3.8,2.3,2.3,0,0,1-.3.9,3,3,0,0,1-.8.8,1.6,1.6,0,0,0,.3.8c1.7-2.5,3-4.7,4.1-6.4l2.6-4c.7-1.1,1.2-1.9,1.6-2.4a10.5,10.5,0,0,1,.8-1.3,44.9,44.9,0,0,1,4.7-5.8C66.6,1,67.8.3,68.7.3a1.2,1.2,0,0,1,1.1.4,1.5,1.5,0,0,1,.4,1.1,7.9,7.9,0,0,1-.9,3.6,36.9,36.9,0,0,1-2.7,4.3c-1.2,1.6-2.5,3.1-3.9,4.7l-4.5,4.3A32.2,32.2,0,0,1,53.7,22l-1.2,2,.8.5,1.1.3a8.2,8.2,0,0,0,4-.7A13.4,13.4,0,0,0,61,22.2c1-1.4,2.7-3.4,5-6.1h2.4l-4.2,5-2.5,3.1A13.6,13.6,0,0,0,60.5,26a1.6,1.6,0,0,0-.4,1,.5.5,0,0,0,.5.5h.8a3.7,3.7,0,0,0,2.1-.7,10.2,10.2,0,0,0,2.2-1.6,12.9,12.9,0,0,0,2.1-1.9l1.6-1.7.7-.8.4.3a4.8,4.8,0,0,0-.9,1L68,23.9l-2.1,2-2.4,1.5a4.4,4.4,0,0,1-2.4.7,3.9,3.9,0,0,1-1.7-.4,1.2,1.2,0,0,1-.7-1.1,3.5,3.5,0,0,1,.3-1.2,5.6,5.6,0,0,1,.9-1.7,6.7,6.7,0,0,1-2.4,1.2,7.6,7.6,0,0,1-3.1.3l-1.2-.3a3.1,3.1,0,0,1-1-.5l-.7,1.1a37.6,37.6,0,0,1-1,6,27.7,27.7,0,0,1-2,5.3,13.4,13.4,0,0,1-2.6,3.7A4.2,4.2,0,0,1,43,41.9Zm.1-.5a3.2,3.2,0,0,0,1.9-1,16.7,16.7,0,0,0,2.4-3.1,17.8,17.8,0,0,0,2.2-4.8,22.7,22.7,0,0,0,1.3-6.1l-3.2,4.8L45,35.4a26.7,26.7,0,0,0-2,3.4,4.4,4.4,0,0,0-.7,1.9.8.8,0,0,0,.2.5C42.7,41.4,42.8,41.4,43.1,41.4ZM54.3,21a27.1,27.1,0,0,0,4.1-3.2,54.4,54.4,0,0,0,4.1-4.2A35.5,35.5,0,0,0,66,9.2,34.6,34.6,0,0,0,68.6,5a6.6,6.6,0,0,0,.8-3.3,1.9,1.9,0,0,0-.2-.8L68.6.7a1.4,1.4,0,0,0-.9.4,9.2,9.2,0,0,0-1.5,1.7,27.5,27.5,0,0,0-2.3,3.4c-1.1,1.7-2.2,3.3-3.1,4.9l-3.1,4.7Zm15.8-8.4a1.1,1.1,0,0,1-.8-.3,1,1,0,0,1-.3-.8,1.8,1.8,0,0,1,.5-1.1,2.1,2.1,0,0,1,1.3-.5A1,1,0,0,1,71.9,11a1.4,1.4,0,0,1-.6,1.1A1.6,1.6,0,0,1,70.1,12.6Z" style="fill:url(#d)"/><path d="M79.7,28.1a4.3,4.3,0,0,1-1.7-.4,1,1,0,0,1-.7-1,2.3,2.3,0,0,1,.2-1.1,8.8,8.8,0,0,1,1-1.8l2.5-3a30.5,30.5,0,0,0,1.9-2.4,3.3,3.3,0,0,0,.6-1.3c0-.2-.1-.3-.2-.5l-.7-.2-.9.3a6.1,6.1,0,0,0-1.4.7,26,26,0,0,0-3.4,3,52.9,52.9,0,0,0-4.7,5.2l-1.6,2.1H67.9l3.3-4.7,2.1-3,1.2-1.7a4.4,4.4,0,0,0,.5-.9l.2-.4c0-.3-.1-.5-.4-.5s-.4.2-.8.5l-1.1,1.2-1.3,1.5-1.1,1.4h-.4c0-.1-.1-.2,0-.2l1.1-1.4,1.4-1.6L74,16.5a3,3,0,0,1,1.4-.5l1.1.2c.3.2.4.5.4,1.1l-.2.7a6.4,6.4,0,0,1-.6,1.1l-3.7,5.1v.2c1.8-2.1,3.3-3.7,4.5-4.9l3.1-2.6,1.5-.7,1.2-.2a2.2,2.2,0,0,1,1.6.5,2.1,2.1,0,0,1,.5,1.3,5.1,5.1,0,0,1-.5,1.7,20.6,20.6,0,0,1-1.5,2.4l-3.1,3.6a5.8,5.8,0,0,0-1,1.2.6.6,0,0,0-.2.5q0,.2.3.3h.9A4.3,4.3,0,0,0,82,27a11.2,11.2,0,0,0,2.2-1.6,18,18,0,0,0,2-1.9,17.7,17.7,0,0,0,1.4-1.7l.8-.9.4.3-.8,1-1.6,1.7-2,2a11.4,11.4,0,0,1-2.3,1.5A4.4,4.4,0,0,1,79.7,28.1Z" style="fill:url(#e)"/><path d="M88.2,28.1a2,2,0,0,1-1.6-.6,3.1,3.1,0,0,1-.5-1.7,5.6,5.6,0,0,1,.5-2.5,9.6,9.6,0,0,1,1.6-2.7,14.1,14.1,0,0,1,4.5-3.7,9.6,9.6,0,0,1,3.9-.9,2.4,2.4,0,0,1,1.5.4,1.1,1.1,0,0,1,.6,1,2.2,2.2,0,0,1-.2,1.1l1-1.2a8.6,8.6,0,0,0,.7-1l1.1.2h1.3l-5.9,7.2a10.5,10.5,0,0,0-1.6,2.1,3.6,3.6,0,0,0-.5,1.3c0,.4.2.6.5.6a3.9,3.9,0,0,0,2-.6,8.1,8.1,0,0,0,2-1.4l1.9-1.8,1.5-1.7a4.4,4.4,0,0,1,1-1.2l.3.3-1.1,1.2a12.9,12.9,0,0,1-1.6,1.8,17,17,0,0,1-1.9,1.9A10.2,10.2,0,0,1,97,27.5a4.2,4.2,0,0,1-2.1.6c-1.2,0-1.8-.4-1.8-1.1a1.9,1.9,0,0,1,.2-.8,4.1,4.1,0,0,1,.6-1.1l1.3-1.8h-.1a18.5,18.5,0,0,1-4,3.7A6.6,6.6,0,0,1,88.2,28.1Zm.1-.6a5.3,5.3,0,0,0,3-1.3,24.4,24.4,0,0,0,4.4-4.3l.8-1,.7-.8a5.4,5.4,0,0,0,.7-1.3,2.7,2.7,0,0,0,.3-1.2,1,1,0,0,0-.3-.8l-.9-.3a7.1,7.1,0,0,0-2.8,1.3A18.3,18.3,0,0,0,90,21.7a12.9,12.9,0,0,0-1.9,2.9,4.9,4.9,0,0,0-.6,2C87.5,27.2,87.8,27.5,88.3,27.5Z" style="fill:url(#f)"/></svg>