<svg xmlns="http://www.w3.org/2000/svg" width="17.4" height="20.4" viewBox="0 0 17.4 20.4"><title>icon-gif</title><path d="M15.7,11H10.1v9.4h5.6a.7.7,0,0,0,.7-.8V11.7A.7.7,0,0,0,15.7,11Z" style="fill:#d27b74"/><path d="M1,11.7v7.9a.7.7,0,0,0,.7.8H7.3V11H1.7A.7.7,0,0,0,1,11.7Z" style="fill:#d27b74"/><path d="M0,7V9.4a.7.7,0,0,0,.7.7H7.3V6.3H.7A.7.7,0,0,0,0,7Z" style="fill:#d27b74"/><path d="M16.7,6.3H10.1v3.8h6.6a.7.7,0,0,0,.7-.7V7A.7.7,0,0,0,16.7,6.3Z" style="fill:#d27b74"/><path d="M3.1,5.5H14.3a2.5,2.5,0,0,0,1.1-2.3,3.1,3.1,0,0,0-.7-2.1A2.6,2.6,0,0,0,12.6,0h-.3C10,.2,9.1,2.4,8.7,3.8,8.3,2.4,7.4.2,5.1,0H4.8A2.8,2.8,0,0,0,2.6,1.1,3.7,3.7,0,0,0,2,3.2,2.5,2.5,0,0,0,3.1,5.5Zm9.3-4.2h.2a1.4,1.4,0,0,1,1.1.6,2.5,2.5,0,0,1,.4,1.3c0,.4-.2,1.2-.7,1.2H9.9C10.2,3.3,10.8,1.4,12.4,1.3Zm-8.7.6a1.4,1.4,0,0,1,1.1-.6H5c1.6.1,2.2,2,2.5,3.1H4c-.6,0-.7-.8-.7-1.2A1.8,1.8,0,0,1,3.7,1.9Z" style="fill:#d27b74"/></svg>