<svg xmlns="http://www.w3.org/2000/svg" width="19" height="19" viewBox="0 0 19 19"><title>icon-spotify</title><path d="M9.5,0a9.5,9.5,0,0,0,0,19,9.5,9.5,0,0,0,0-19Zm4.3,13.7a.5.5,0,0,1-.8.2c-2.2-1.4-5-1.7-8.3-.9-.3.1-.6-.2-.7-.4a.6.6,0,0,1,.4-.8,12.3,12.3,0,0,1,9.2,1.1A.5.5,0,0,1,13.8,13.7ZM15,11.1c-.3.3-.7.5-1,.2a13,13,0,0,0-9.5-1.1.8.8,0,0,1-.9-.4c0-.4.1-.8.5-.9a13.7,13.7,0,0,1,10.7,1.2A.8.8,0,0,1,15,11.1Zm.1-2.7C12,6.6,7,6.4,4.1,7.3A.8.8,0,0,1,3,6.8a.8.8,0,0,1,.6-1.1C6.9,4.7,12.5,4.9,16,7a.9.9,0,0,1,.3,1.2A.9.9,0,0,1,15.1,8.4Z" style="fill:#f4f4f4"/></svg>