<svg xmlns="http://www.w3.org/2000/svg" width="15.8" height="21" viewBox="0 0 15.8 21"><title>icon-form2</title><path d="M11.8,0H.7A.7.7,0,0,0,0,.7V20.3a.7.7,0,0,0,.7.7H15.1a.7.7,0,0,0,.7-.7V4.3Zm-8,17a.8.8,0,0,1-.8-.7.9.9,0,0,1,.8-.8.9.9,0,0,1,.8.8A.8.8,0,0,1,3.8,17Zm0-3.3a.8.8,0,0,1-.8-.8.8.8,0,0,1,.8-.7.8.8,0,0,1,.8.7A.8.8,0,0,1,3.8,13.7Zm0-3.4A.8.8,0,0,1,3,9.6a.9.9,0,0,1,.8-.8.9.9,0,0,1,.8.8A.8.8,0,0,1,3.8,10.3Zm9,6.7H5.5V15.5h7.3Zm0-3.3H5.5V12.2h7.3Zm0-3.4H5.5V8.8h7.3Zm-.5-5.7a.8.8,0,0,1-.7-.7V.3l3.9,4.3Z" style="fill:#f4f4f4"/></svg>