<svg xmlns="http://www.w3.org/2000/svg" width="22.7" height="19.5" viewBox="0 0 22.7 19.5"><title>icon-like4-v</title><path d="M20.2,1.4A7.3,7.3,0,0,0,16.4,0a6.4,6.4,0,0,0-3.8,1,6.8,6.8,0,0,0-1.2,1.2A7.4,7.4,0,0,0,10.1,1,6.2,6.2,0,0,0,6.3,0,7,7,0,0,0,2.6,1.4,6.5,6.5,0,0,0,.1,7.9c.5,3.4,3.2,5.2,5.8,6.9A15.9,15.9,0,0,1,10.6,19a.8.8,0,0,0,.8.5,1,1,0,0,0,.8-.5c1-1.7,2.9-3,4.6-4.2s5.3-3.5,5.8-6.9A6.6,6.6,0,0,0,20.2,1.4ZM6.6,1.9a4.3,4.3,0,0,1,2.5.7,3.9,3.9,0,0,1,1.4,1.7,1,1,0,0,0,1.7,0,5,5,0,0,1,1.5-1.7,3.9,3.9,0,0,1,2.6-.7,4.3,4.3,0,0,1,2.7,1,4.7,4.7,0,0,1,1.8,4.7c-.4,2.6-2.6,4.1-5,5.7A17.3,17.3,0,0,0,11.4,17a19.7,19.7,0,0,0-4.5-3.7c-2.4-1.6-4.6-3.1-5-5.7A4.7,4.7,0,0,1,3.7,2.9a4.3,4.3,0,0,1,2.7-1Z" style="fill:#f4f4f4"/></svg>