<svg xmlns="http://www.w3.org/2000/svg" width="18.6" height="16.6" viewBox="0 0 18.6 16.6"><title>icon-gallery</title><path d="M16.6,2.6H15.3a.7.7,0,0,1-.6-.4L14.2,1a1.8,1.8,0,0,0-1.6-1H9.7A1.8,1.8,0,0,0,8.1,1L7.6,2.2a.7.7,0,0,1-.5.4H5.6a.2.2,0,0,1-.2-.2L5,2c-.1-.2-.2-.3-.4-.3H3.5A.5.5,0,0,0,3,2l-.3.4-.3.2H2a2,2,0,0,0-2,2v10a2,2,0,0,0,2,2H16.6a2,2,0,0,0,2-2V4.6A2,2,0,0,0,16.6,2.6ZM5.9,6a.7.7,0,1,1,.7-.7A.7.7,0,0,1,5.9,6ZM11,14A4.4,4.4,0,0,1,6.6,9.6,4.4,4.4,0,0,1,11,5.2a4.4,4.4,0,0,1,4.5,4.4A4.5,4.5,0,0,1,11,14ZM7.4,9.9c-.1,0-.2-.1-.2-.3A3.9,3.9,0,0,1,11,5.7a.3.3,0,0,1,.3.3.3.3,0,0,1-.3.3A3.3,3.3,0,0,0,7.7,9.6.3.3,0,0,1,7.4,9.9Z" style="fill:#d27b74"/></svg>