<svg xmlns="http://www.w3.org/2000/svg" xmlns:xlink="http://www.w3.org/1999/xlink" width="75.1" height="59.3" viewBox="0 0 75.1 59.3"><defs><linearGradient id="a" x1="23.61" y1="58.54" x2="23.61" y2="24.26" gradientUnits="userSpaceOnUse"><stop offset="0" stop-color="#d27b74"/><stop offset="0.37" stop-color="#e59a96"/><stop offset="1" stop-color="#d39aab"/></linearGradient><linearGradient id="b" x1="47.81" y1="59.34" x2="47.81" y2="24.79" xlink:href="#a"/><linearGradient id="c" x1="12.82" y1="20.35" x2="12.82" y2="2.68" gradientUnits="userSpaceOnUse"><stop offset="0" stop-color="#5e3e15"/><stop offset="0.42" stop-color="#5e3e15"/><stop offset="0.57" stop-color="#5c4122"/><stop offset="0.85" stop-color="#564743"/><stop offset="0.89" stop-color="#554848"/></linearGradient><linearGradient id="d" x1="25.68" y1="20.35" x2="25.68" y2="11.56" xlink:href="#c"/><linearGradient id="e" x1="35.55" y1="20.3" x2="35.55" y2="0" xlink:href="#c"/><linearGradient id="f" x1="40.88" y1="30.27" x2="40.88" y2="0.2" xlink:href="#c"/><linearGradient id="g" x1="56.64" y1="20.3" x2="56.64" y2="11.56" xlink:href="#c"/><linearGradient id="h" x1="68.65" y1="20.3" x2="68.65" y2="11.56" xlink:href="#c"/></defs><title>icon-header-3</title><path d="M15.7,58.5V58l2.1-.6a2.6,2.6,0,0,0,2-2.7V28.9l-4.3.6v-.7A32.8,32.8,0,0,0,21.6,27,45.3,45.3,0,0,0,27,24.3l.7.4-.2,7.6V54.7a2.6,2.6,0,0,0,2,2.6l2.2.7v.5Z" style="fill:url(#a)"/><path d="M45.9,59.3a22.9,22.9,0,0,1-5.5-.5,11.3,11.3,0,0,1-4.3-1.9l.3-6.7H37l2.4,4.4A7.1,7.1,0,0,0,42,57.4a6.9,6.9,0,0,0,3.4.9c4.1,0,6.2-3.1,6.2-9.3,0-2.8-.6-5-1.7-6.4a5.4,5.4,0,0,0-4.8-2.2,9.2,9.2,0,0,0-2.9.4,16.9,16.9,0,0,0-2.7,1l-1-.6,1.2-16.4H58.3v6.1H40.8L40,40.1a12.6,12.6,0,0,1,3.3-1.7,10.8,10.8,0,0,1,4.4-.8,14.8,14.8,0,0,1,6.1,1.2A9.3,9.3,0,0,1,58,42.4a10.6,10.6,0,0,1,1.5,5.8,10.2,10.2,0,0,1-1.7,6.1,11,11,0,0,1-4.9,3.8A19.4,19.4,0,0,1,45.9,59.3Z" style="fill:url(#b)"/><path d="M2.3,20.3.5,20.1a1,1,0,0,1-.5-.7c0-.2.2-.5.7-.7a3.4,3.4,0,0,1,1.9-.4l1.4.2a10.4,10.4,0,0,1,2.1.5h.1a.1.1,0,0,1,.1.1,14.2,14.2,0,0,0,3-2.4,40.9,40.9,0,0,0,4-4.5l2.2-2.6,2.4-2.5,1.9-1.5a5,5,0,0,0-2.5-2A9.5,9.5,0,0,0,13.8,3a9.3,9.3,0,0,0-2.9.5A13.4,13.4,0,0,0,8.2,4.8,12.9,12.9,0,0,0,6.1,6.7a9.5,9.5,0,0,0-1.5,2,5.4,5.4,0,0,0-.5,1.9,1.6,1.6,0,0,0,.7,1.5,2.4,2.4,0,0,0,1.7.6,7.2,7.2,0,0,0,1.9-.4l2.1-1.2,2-1.7a9.5,9.5,0,0,0,1.5-2,6,6,0,0,0,.7-2,.4.4,0,0,1,.1-.3l.2.2a5.5,5.5,0,0,1-.7,2.8,11,11,0,0,1-1.9,2.5,12.7,12.7,0,0,1-2.7,1.8,8.7,8.7,0,0,1-3.2.6A4,4,0,0,1,5,12.7a2.7,2.7,0,0,1-1.2-.9,2.3,2.3,0,0,1-.4-1.4,5.7,5.7,0,0,1,.8-2.8A8.6,8.6,0,0,1,6.4,5.1,17.4,17.4,0,0,1,9.7,3.3a13.5,13.5,0,0,1,4.1-.6,9.2,9.2,0,0,1,3.8.7,6.6,6.6,0,0,1,2.7,1.9A12.6,12.6,0,0,1,22.9,4a6.5,6.5,0,0,1,2.6-.6c.1,0,.1,0,.1.1h-.4a7.5,7.5,0,0,0-2.3.7,14.3,14.3,0,0,0-2.2,1.5,7.5,7.5,0,0,1,.9,3.7,10,10,0,0,1-.9,4.3,11.6,11.6,0,0,1-2.4,3.4,11.3,11.3,0,0,1-7.6,3l-1.8-.2a10.4,10.4,0,0,1-2.1-.5A12.9,12.9,0,0,1,2.3,20.3Zm.2-.4H4.1a4.3,4.3,0,0,0,1.6-.5L4.1,19H.9c-.4.1-.5.3-.5.4S1.1,19.9,2.5,19.9Zm8.3,0a9.7,9.7,0,0,0,3.7-.7A16.6,16.6,0,0,0,17.7,17,12.4,12.4,0,0,0,20,13.8a11.6,11.6,0,0,0,.8-4.2,7.9,7.9,0,0,0-.6-3.2,18.7,18.7,0,0,0-2.8,3.3l-2.9,4a26.1,26.1,0,0,1-3.2,3.4,11.8,11.8,0,0,1-3.9,2.3l1.5.4Z" style="fill:url(#c)"/><path d="M23,20.3a2.3,2.3,0,0,1-1.8-.6,2.8,2.8,0,0,1-.6-1.6,4.4,4.4,0,0,1,.3-1.5,5.3,5.3,0,0,1,.6-1.3,8.4,8.4,0,0,1,2.1-2.1A5.7,5.7,0,0,1,25.7,12a4.6,4.6,0,0,1,1.9-.4c.5,0,.8,0,1,.2s.4.4.4.6a2.2,2.2,0,0,1-.6,1.2A6.6,6.6,0,0,1,26.5,15l-4,1.6a4.5,4.5,0,0,0-.6,1.2,2.8,2.8,0,0,0-.1.9,1,1,0,0,0,.4.9,1.1,1.1,0,0,0,.9.4,5.9,5.9,0,0,0,2.3-.5,11.8,11.8,0,0,0,1.9-1.1A10.3,10.3,0,0,0,28.8,17l1.1-1.2.5-.7.3.2-.6.8-1.2,1.2a7.3,7.3,0,0,1-1.6,1.4,6.7,6.7,0,0,1-2,1.2A5.9,5.9,0,0,1,23,20.3Zm-.2-4.2a11.8,11.8,0,0,0,3.9-1.8c.9-.6,1.4-1.2,1.4-1.7s-.2-.7-.6-.7a3,3,0,0,0-1.9.9l-2.3,2.6Z" style="fill:url(#d)"/><path d="M29.5,20.3a1.1,1.1,0,0,1-.8-.3.8.8,0,0,1-.4-.7,1.5,1.5,0,0,1,.1-.7,2,2,0,0,1,.4-.8,5.3,5.3,0,0,1,.8-1.4L31.2,14,41,0h1.8L32.4,14.5,30.6,17a12.6,12.6,0,0,0-1,1.5l-.4.7v.3c0,.3.2.4.6.4a2.8,2.8,0,0,0,1.5-.4L33,18.4,34.5,17l1.1-1.2.7-.7.2.2-.6.7-1.3,1.3c-.4.5-1,.9-1.5,1.4a8.7,8.7,0,0,1-1.8,1.1A4.1,4.1,0,0,1,29.5,20.3Z" style="fill:url(#e)"/><path d="M31.1,30.3A1.4,1.4,0,0,1,29.8,29a5.2,5.2,0,0,1,.2-1.1,6.7,6.7,0,0,1,.8-1.8,29.4,29.4,0,0,1,1.8-3l3.1-4.7,1.1-1.7a6.1,6.1,0,0,1-.5-1.2,3.8,3.8,0,0,1-.1-1l.3-.7a1.1,1.1,0,0,1,.6-.2l.4.2c.2.1.2.3.2.6a.8.8,0,0,1-.2.6,1.7,1.7,0,0,1-.6.6c.1.2.1.4.2.6,1.3-1.8,2.3-3.4,3-4.6a33.5,33.5,0,0,0,1.9-3l1.1-1.7.6-.9c1.3-1.7,2.4-3.1,3.4-4.2S49,.2,49.7.2a1.1,1.1,0,0,1,.8.3c.2.2.2.5.3.8a6,6,0,0,1-.7,2.6,16.1,16.1,0,0,1-2,3.1,22,22,0,0,1-2.8,3.4c-1,1.1-2.1,2.1-3.2,3.1a17.2,17.2,0,0,1-3.3,2.4l-.9,1.4.7.4.7.2a5.1,5.1,0,0,0,2.9-.5,10.4,10.4,0,0,0,1.9-1.3c.8-1.1,2-2.5,3.6-4.4h1.7l-3,3.6-1.8,2.2-.9,1.3a2.5,2.5,0,0,0-.2.7c0,.2.1.4.3.4h.6a2.8,2.8,0,0,0,1.5-.4,8.3,8.3,0,0,0,1.6-1.2A6.7,6.7,0,0,0,49,16.9l1.2-1.2c.3-.4.4-.6.5-.6l.2.2-.6.7-1.1,1.3-1.6,1.4a6.2,6.2,0,0,1-1.7,1.1,4.1,4.1,0,0,1-1.7.5,2.8,2.8,0,0,1-1.3-.3.8.8,0,0,1-.4-.8,2.5,2.5,0,0,1,.1-.8c.1-.3.4-.7.7-1.3a4.6,4.6,0,0,1-1.7.9,5.7,5.7,0,0,1-2.3.2l-.9-.2-.7-.4-.5.8a21.3,21.3,0,0,1-.7,4.4,33.5,33.5,0,0,1-1.4,3.8,11.7,11.7,0,0,1-1.9,2.7A3.4,3.4,0,0,1,31.1,30.3Zm0-.3a2.3,2.3,0,0,0,1.4-.8A10.6,10.6,0,0,0,34.3,27a19.2,19.2,0,0,0,1.6-3.5,26.3,26.3,0,0,0,.9-4.4l-2.3,3.4c-.7,1.2-1.4,2.2-2,3.1L31.1,28a4.7,4.7,0,0,0-.5,1.4c0,.2,0,.3.1.4Zm8.2-14.8a26.4,26.4,0,0,0,2.9-2.3l3-3,2.6-3.3a23.8,23.8,0,0,0,1.8-3,6,6,0,0,0,.6-2.4A.8.8,0,0,0,50,.7L49.6.5l-.7.3A6.9,6.9,0,0,0,47.8,2c-.4.6-1,1.4-1.6,2.4L43.9,8c-.7,1.1-1.4,2.3-2.2,3.4S40.2,13.9,39.3,15.2ZM50.7,9.1c-.3,0-.4,0-.6-.2a.8.8,0,0,1-.2-.6,1.2,1.2,0,0,1,.4-.8,1.2,1.2,0,0,1,.9-.3c.2,0,.4,0,.5.2A.6.6,0,0,1,52,8c0,.3-.2.5-.4.8Z" style="fill:url(#f)"/><path d="M57.6,20.3a2.1,2.1,0,0,1-1.2-.3.6.6,0,0,1-.5-.7,2.5,2.5,0,0,1,.1-.8c.1-.3.4-.7.7-1.3L58.6,15,60,13.3a2.6,2.6,0,0,0,.3-1,.4.4,0,0,0-.1-.3H59l-1,.6c-.6.5-1.5,1.2-2.4,2.1a48.7,48.7,0,0,0-3.4,3.8L51,20H49.1c.9-1.4,1.7-2.5,2.4-3.4L53,14.5l.9-1.2.4-.6a.4.4,0,0,1,.1-.3c0-.3-.1-.4-.3-.4s-.3.1-.6.4l-.8.8-1,1.1-.8,1h-.2c0-.1-.1-.2,0-.2l.8-1,1-1.2a4.1,4.1,0,0,1,1-.9,1.6,1.6,0,0,1,1-.4h.8c.2.1.3.4.3.8l-.2.5a2,2,0,0,1-.4.8l-2.7,3.7h.1c1.3-1.5,2.4-2.6,3.3-3.5a26,26,0,0,1,2.2-1.9l1.1-.5h.9A1.2,1.2,0,0,1,61,12a.9.9,0,0,1,.4.8,9.3,9.3,0,0,1-.4,1.3l-1.1,1.7a20.3,20.3,0,0,1-2.2,2.6l-.8.9c0,.1-.1.2-.1.3s.1.2.3.3h.6a3.2,3.2,0,0,0,1.6-.4,9.1,9.1,0,0,0,1.6-1.1A18.5,18.5,0,0,0,62.3,17l1.1-1.2a2.5,2.5,0,0,1,.5-.7l.3.2-.6.7-1.1,1.3L61,18.7a6.2,6.2,0,0,1-1.7,1.1A3.4,3.4,0,0,1,57.6,20.3Z" style="fill:url(#g)"/><path d="M63.8,20.3a2.1,2.1,0,0,1-1.2-.4,2.5,2.5,0,0,1-.4-1.3,7.4,7.4,0,0,1,.4-1.8,5,5,0,0,1,1.2-1.9A10.7,10.7,0,0,1,67,12.2a7.4,7.4,0,0,1,2.8-.6l1.1.2a1,1,0,0,1,.5.8,2.4,2.4,0,0,1-.2.8l.7-.9.6-.7h1.7L69.9,17l-1.2,1.6a2.3,2.3,0,0,0-.3.9c0,.3.1.4.4.4a2.7,2.7,0,0,0,1.4-.4,6.5,6.5,0,0,0,1.5-1L73,17.2l1.1-1.3.7-.8.3.2-.8.9-1.2,1.3a8.6,8.6,0,0,1-1.4,1.3,7.2,7.2,0,0,1-1.5,1.1,3.4,3.4,0,0,1-1.6.4c-.9,0-1.3-.3-1.3-.8s.1-.4.1-.6l.5-.8a7.7,7.7,0,0,1,1-1.2h-.2a11.4,11.4,0,0,1-2.8,2.7A5.1,5.1,0,0,1,63.8,20.3Zm0-.4A4.2,4.2,0,0,0,66,19a19.1,19.1,0,0,0,3.2-3.2l.6-.7.5-.6.5-.9a2.9,2.9,0,0,0,.2-.9.9.9,0,0,0-.3-.6h-.6a5,5,0,0,0-2,.9,14.8,14.8,0,0,0-3,2.8,9.5,9.5,0,0,0-1.4,2.1,2.8,2.8,0,0,0-.4,1.5C63.3,19.7,63.5,19.9,63.8,19.9Z" style="fill:url(#h)"/></svg>