<svg xmlns="http://www.w3.org/2000/svg" xmlns:xlink="http://www.w3.org/1999/xlink" width="21.6" height="18.3" viewBox="0 0 21.6 18.3"><defs><linearGradient id="a" x1="10.78" x2="10.78" y2="18.35" gradientUnits="userSpaceOnUse"><stop offset="0.02" stop-color="#d26274"/><stop offset="0.59" stop-color="#d47e96"/><stop offset="1" stop-color="#cf9397"/></linearGradient></defs><title>icon-like</title><path d="M21.5,7.2a7.7,7.7,0,0,1-2,3.9A23.3,23.3,0,0,1,16,13.8a13.9,13.9,0,0,0-4.9,4.4h-.3c-.1,0-.3,0-.3-.1a13.9,13.9,0,0,0-4.9-4.4C3.1,12.1.6,10.4.1,7.2A5.9,5.9,0,0,1,2.3,1.3,6.2,6.2,0,0,1,5.7,0,5.9,5.9,0,0,1,9.2.9a6.5,6.5,0,0,1,1.6,1.7A6.5,6.5,0,0,1,12.4.9,5.8,5.8,0,0,1,15.8,0a5.9,5.9,0,0,1,3.4,1.3A6.1,6.1,0,0,1,21.5,7.2Z" style="fill:url(#a)"/></svg>