<svg xmlns="http://www.w3.org/2000/svg" width="203.5" height="202.8" viewBox="0 0 203.5 202.8"><title>janos-hudson</title><path d="M82.3,157.9l.4-.5c0-.2-.2-.5-.4-.5l-1.3-.2a5.6,5.6,0,0,1-3.4-6.3,29.5,29.5,0,0,0,.1-4.2v-19c0-.4-.2-1.1.3-1.3s.8.5,1.1.7l.5.3h0a84,84,0,0,0,6.5,8c2.9,3.4,5.5,7,8.8,10.1a37.4,37.4,0,0,0,5.3,6.6,8.2,8.2,0,0,0,2.3,2.6h0a7.5,7.5,0,0,0,2.2,2.5h0l.7.7h0c.4.9.8.9,1.1,0a10.9,10.9,0,0,0,.1-1.8V123.9a5.6,5.6,0,0,1,1.7-4.7c.8-.2,1.3-.8,2.1-.9s1-.3.9-.7-.7-.5-1.2-.5h-3.9c-2.1.1-4.2-.4-6.2.2h0c-.6.6.1.5.3.7h0c.7.8,1.7.8,2.5,1.2h0a13.4,13.4,0,0,1,1.1,1.4,10.9,10.9,0,0,1,.4,2.5c0,5.4-.1,10.8,0,16.2,0,1.7-.7,1.1-1.4.5h0l-8.6-10.2c-1.4-1.6-2.4-3.4-4.1-4.7a48.5,48.5,0,0,0-5.5-6.5,1.2,1.2,0,0,0-.7-.7,1.5,1.5,0,0,0-1.6-.7H71.6c-.3,0-.9-.1-1,.5s.4.7.9.8l1.2.2h0l.6.3a5.3,5.3,0,0,1,2.3,4.9,24.3,24.3,0,0,0,0,2.7c0,.7-.1,1.4-.1,2.2v22.7a5.4,5.4,0,0,1-1.1,3.7c-1.2.9-2.5,1.8-4.2,1.5h-.1a12.3,12.3,0,0,1-3.5-2.9h0a7,7,0,0,1-.9-1.7l-6-17.9c-1.7-5.5-3.4-11-5.5-16.4,0,.1-.1.1-.1.2h.1c-.5-.5.1-2.1-1.5-1.8v.2h-.1v-.2a54.9,54.9,0,0,0-6.9,2.1h-.4a6.5,6.5,0,0,0-1.1,2.2,54,54,0,0,0-1.8,5.7c-.1.1-.1.1-.1.2a18.5,18.5,0,0,0-1.7,5h0c-2.4,6.1-4.4,12.3-6.5,18.5l-.2.3c-.9,2.1-1.5,4.4-3.5,5.9h0L28.3,157c-1,.5-.7,1,.1,1,3.6-.1,7.2.3,10.8-.2h0c.4-1.1-.3-1.1-1-1.2h0c-2.6-1.4-2.7-1.8-2-4.7.1-.4.1-.9.2-1.4a46,46,0,0,0,2.2-7.2h0a2.5,2.5,0,0,1,2-.6c3.4,0,6.9.1,10.3,0,1.2-.1,1.6.3,2,1.3a34.6,34.6,0,0,0,1.9,5.4c.2.6.3,1.3.5,1.9s.4,3.7-1.5,5h0c-.8.2-2.2.1-2.1,1.2s1.4.5,2.2.5H82.3Zm-39.2-28a3.6,3.6,0,0,0,.2-1c.1-.2.1-.4.2-.6a11.1,11.1,0,0,0,.9-3.1h0c0-.1,0-.1.1-.2a1.9,1.9,0,0,0,.3-1,1.4,1.4,0,0,1,.2-.6c.1-.2.1-.3.2-.4h.9a10.8,10.8,0,0,0,1.1,3.6h0c1.4,4.3,2.7,8.5,4.1,12.7.3,1.1.1,1.5-1.1,1.5H41.7c-1.7.1-2-.4-1.5-2l1.5-4.9C42.2,132.5,42.5,131.1,43.1,129.9Zm36.5-3.8Zm25.5,8.1h0Zm.2-13.4v-.2h.1C105.4,120.7,105.4,120.8,105.3,120.8Zm-27.5,2.3h0Zm-27.6,8.1h0Zm6.9,25.5Zm12.6.1h0ZM57.1,128ZM38.4,157.1Z" style="fill:#d27b74"/><path d="M154.1,128.3a1.4,1.4,0,0,0-.7-1.5h0a12.5,12.5,0,0,0-3.6-4.6,12.4,12.4,0,0,0-5.5-3.8,18.5,18.5,0,0,0-12-1.7c-6.7.5-11.7,3.8-15.3,9.4a8.6,8.6,0,0,0-1.5,2.2c-2,3.6-2.2,7.4-2,11.4.3,6.2,3.1,11,7.9,14.8h0a13.8,13.8,0,0,0,7.6,3.6h.6a29,29,0,0,0,9.3-.1c3.9-.4,7-2.5,9.9-5h0a18.5,18.5,0,0,0,6.1-9.2c1.6-5.1,1.7-10.3-.7-15.3A.4.4,0,0,0,154.1,128.3Zm-31.2,14.9Zm-7.3-1.1Zm14.7,13.2h-.1l-1.5-1.6h0l-2.5-5.1h0c-1.8-8.9-2.3-17.8,1.8-26.4l2.3-2.7h.2a1.8,1.8,0,0,0,1-.4c.3-.5.9-.6,1.4-.8a10.1,10.1,0,0,1,3-.1,3.4,3.4,0,0,1,1.9.7,5,5,0,0,0,1.2.8,1.5,1.5,0,0,1,.7.3c0,.1.1.2.2.3l.5.6.2.3c-.2.6.2,1.1.4,1.6s.9,1.9,1.3,2.9c1.9,5.5,1.6,11.3,1.3,17-.1,2.3-1,4.5-1.1,6.8h.1a2,2,0,0,0-1,1.2c-1.9,3.9-4.6,6.3-9.2,5.5h-.2l-.4-.2h-.2l-.6-.4Zm4.2-37.6a.1.1,0,0,1,.1-.1h-.1Zm-17.4,9.1a.1.1,0,0,1-.1.1h.1Z" style="fill:#d27b74"/><path d="M29.3,116.8c-.1-.9-1.3-.5-2.1-.5H11.5c-.6,0-1.2-.2-1.7.3s.1.9.5.9a5.4,5.4,0,0,1,2.4.9H13a5.5,5.5,0,0,1,1.5,4.2v36.4a14.1,14.1,0,0,0,0,2.9,5.7,5.7,0,0,0-.4,2.6c-.3,1.3-.7,2.6-1,4l-.8,1.3h.1V170c-2.9,1.4-3.4,1.1-4.3-2a8.8,8.8,0,0,0-.5-1.5A3.8,3.8,0,0,0,4.2,164c-1.7,0-3.1.5-3.8,2.1H0V169H.3a2.3,2.3,0,0,0,1.1,1.7c2.7,2.3,5.9,2.3,9.2,1.9a7.8,7.8,0,0,0,4.7-1.1h0a7.5,7.5,0,0,0,4.7-3.3h0c.6-.2.9-.8,1.2-1.3a22.9,22.9,0,0,0,3.1-11.1c.1-10.7.1-21.5,0-32.2,0-2.6.5-4.7,3-5.9h0C28,117.6,29.4,117.9,29.3,116.8Zm-8.2,43.3a.7.7,0,0,1,.1-.5A4.3,4.3,0,0,0,21.1,160.1ZM10.6,172.7h0Z" style="fill:#d27b74"/><path d="M201.4,138.8h0c-.1-.7-.7-1-1-1.4-2.7-3-6.2-4.5-9.8-5.9l-3.9-1.8c-4.6-2.3-5.6-5.1-3.8-9.7h0a2.3,2.3,0,0,1,.7-.7A11.2,11.2,0,0,1,188,118a10.9,10.9,0,0,1,9.4,4.2,8.9,8.9,0,0,0,1.4,2.5h0c.1.4.1.8.6.8s.5-.4.5-.7a16.1,16.1,0,0,1,0-3.1c.4-2.2-.9-3.3-2.7-3.9l-1.2-.4c-2.8-1.2-5.8-1.1-8.7-1s-3.7.2-5.2,1.3h0a5.9,5.9,0,0,0-3.2,1.9h0A8.7,8.7,0,0,0,176,123a12.6,12.6,0,0,0,6.7,17l1.4.8c2.8,1.4,5.8,2.5,8.1,4.7h0a7.9,7.9,0,0,1,.8,8.6h0a13.4,13.4,0,0,0-1.1,1.4h0a9.9,9.9,0,0,1-4.9,1.4,20.8,20.8,0,0,1-5.6-1.3c-.3-.2-.5-.6-1-.4h0c-.7-1.5-2.2-2.4-3.3-3.7a5.4,5.4,0,0,0-1.1-1.8h0c-.8-1.8-.8-1.8-1.9-.7s-.1.4-.2.6c-.4,2.2,0,4.5-.1,6.7,0,.5.4.8,1,.6a3.4,3.4,0,0,1,3.1-.2,30.4,30.4,0,0,0,4,1.2,20.5,20.5,0,0,0,13.4-.5h0c.3.1.5,0,.7-.3a2.1,2.1,0,0,0,1.5-.7h0l.6-.4h0a9.5,9.5,0,0,0,4.4-5.1h0C204.3,147.5,203.7,141.7,201.4,138.8Zm-7.3,18.3h0Zm-1.8-11.7Zm-18.1,6.2a.4.4,0,0,1-.1.3v-.3Zm27.6-1.1Z" style="fill:#d27b74"/><path d="M141.1,186a2,2,0,0,0-2.6-.3h0c-1.2.1-1.4,1.9-2.8,1.4a.4.4,0,0,0-.1-.3c-.2-1.2-1.1-1.4-2.1-1.5s-1.1.1-1.1.7-.8,2.7-.9,4.1h0a5.9,5.9,0,0,1-.4.8c-.3.4-.6,1.2-1.3,1s.1-1.1-.1-1.5.9-3.1-.7-4.3-3.3-.8-5.5,1h0a6.8,6.8,0,0,0-2.6,2.7c-1.5,2.6-2.4,5.4-1,8.4h0a2.3,2.3,0,0,0,1.5,1.4,2.9,2.9,0,0,0,3.3-.4h0c.3-.4.9-.5,1.1-1.1h0l.7-.7c1.4-.5,1.5-1.8,2.1-2.8s.3-1.2.8-1,.3.9.1,1.4-.9,2.9.7,4.1.9.9,1.5.6.2-.9.3-1.4a14.2,14.2,0,0,0,.4-2h0a64.7,64.7,0,0,1,3.6-6.9h0c.9-.7,1.3-2.1,2.7-2.4.2,1.5-1.1,2.7-1,4.1s-1.8,4.3-1.7,6.7c0,.8.1,1.7,1,1.9s1.9.6,2.5-.5l.4-.4c.4,0,.6-.2.6-.5s-.3-.4-.4-.4-.8-.5-.7-1.1,1.4-3.1,1.7-4.9a10.4,10.4,0,0,0,1.1-3.1A2.3,2.3,0,0,0,141.1,186Zm-17.2,12.1c-.1.2-.4.2-.7.3h-1.1a4.8,4.8,0,0,1,.1-4.2,16.9,16.9,0,0,1,2.9-4.1h0l2-1.4c.4,1-.1,1.9-.2,2.9s-.6,1.8-.1,2.8a22,22,0,0,1-2.1,3.2l-.4.2Zm11-8.4Zm-.1.1h0Zm-1.8-3.6Zm7.3,6.1Z" style="fill:#d27b74"/><path d="M118.1,189.1c1.3-.9,1.3-2.1,1.1-3.4s-1.2-1-1.6-1.7,3.4-1.3,2-3.6-.9-.6-1.4-.1l-1.2,1.4h0l-2.4,1h-.1c-1.2.2-1.6-.1-1.1-1.3a10.6,10.6,0,0,0,.4-1.9h0c.7-1.2,1.4-2.8-.3-3.4s-3.2-.7-4.4.8l-.8.8h0a2,2,0,0,0-.7,1.8h0c.1.9-.2,1.9.6,2.6h0c.2.7,1.1,1.2.8,2.1h0a1.9,1.9,0,0,1-2.5,1.1,3.6,3.6,0,0,0-4,1.4l-.7.8h0a6.7,6.7,0,0,0-2.6,4,50.3,50.3,0,0,1-2.1,5.4h0c0,.1-.1.3,0,.4h0c-.5.1-.7.9-1.5.6l1.8-5.3a9,9,0,0,0,1.3-3.2c.2-1.2.2-2.5-1.3-3.1l-.4-.3c-.5-.9-1.3-.8-1.3.2s-1,4.5-1.6,6.7l-2.2,3.2a2,2,0,0,0-1.1,1.1l-.5.2c-.3.3-.6,1-1.1.6s-.2-.9,0-1.4.7-2,1-2.9h0c.8-1.8,1.6-3.6,2.3-5.5a1.3,1.3,0,0,0-.6-1.8c-.2-.6-.9-.8-1.4-1.1s-1.3.1-1.4,1a42.1,42.1,0,0,1-3,8.4h0a1.9,1.9,0,0,0-.7,1.4c-.3.3-.6.7-.9.8s-.5,1.2-1.2.9-.2-1-.2-1.5,1-3.4,1.3-5.2h0c.9-.8.5-2.4,1.7-3.1a12.5,12.5,0,0,0,3.7-3.9c.2-2.5,1.9-4.9.7-7.5s-3-1.4-4.4,1h0a10.5,10.5,0,0,0-2.1,4.7,3.7,3.7,0,0,0-.8,2.2h0c-.6,2.3-2,3.1-4.3,2.7l-.8.2h-.3c-1-.2-1.1-.7-.8-1.6a27,27,0,0,0,1.9-5.9c.8-1.1.6-2.3.6-3.5a2.5,2.5,0,0,0-2.7-2.6,4.4,4.4,0,0,0-4.1,2h0v.2l-.3.2a4.4,4.4,0,0,0-2.2,2.9,8.2,8.2,0,0,0-1.7,5.7c0,1.2,0,2.5,1.3,3.1h0c2.2,1.1,2.2,1,1.4,3.5a15.7,15.7,0,0,0-1.2,7.1,5.1,5.1,0,0,0,2,3.8c.5.3.9.5,1.4.2s.2-.7.1-1.1a7.9,7.9,0,0,1,0-4.3c.4-2.7,1.8-5.1,2.3-7.8h0l.7-.7h0c1,0,2.1.1,3.2,0s2,0,1.3,2a28.2,28.2,0,0,0-1.5,5.7c-.4,2.8.7,3.7,3.5,3.2a2.1,2.1,0,0,0,1.8-1.1h0c.5-.1.7-.9,1.3-.3h0c1.5,2.2,2.9,2.2,4.9.3h0c.7-.3,1,.3,1.4.7s2.3,1.5,3.6.3h0l.4-.3c.9,0,1.5-1.8,2.5-.3h0a2.3,2.3,0,0,0,3.5.6,2,2,0,0,1,3.1.1h0a2.7,2.7,0,0,0,2.5-.1c1.2.1,1.3-1.6,2.6-1.3a1.2,1.2,0,0,0,.8,1.3c.3.6.9.7,1.5.8,3.7.3,5.4-1.4,5.3-5.5h0a1.1,1.1,0,0,1,0-1.1h0a10.2,10.2,0,0,0-.3-3C117.7,190.2,117.5,189.5,118.1,189.1Zm-28.7-9.3c-.7,1.4-.9,3.1-1.8,4.5s-.4,1-1,.4a3.7,3.7,0,0,0,1.3-4H88a4.9,4.9,0,0,0,1.3-2.8h.1A1.7,1.7,0,0,1,89.4,179.8Zm-19,2.4a9.3,9.3,0,0,0,.4-1.3l1.2-2.1.3-.3.3-.4.3-.3.3-.4h.2a.3.3,0,0,1,.1-.2h0a1.5,1.5,0,0,0,1.6-.4,6.5,6.5,0,0,0-.2,2.4l.2.4-.9,2.7h0c-.4,1-.7,2.1-1.1,3.1a1.4,1.4,0,0,1-.2.7c-.4,1.1-1,1.5-2,.7s-.7-1.8-1.4-2.4.6-.5.7-.9S70.3,182.6,70.4,182.2Zm-.6,5.7Zm6.5.4h0Zm17.5,6.6Zm17.9,3.2c.6-1.3.8-2.7,1.4-4a.9.9,0,0,0,0-1.1c.6.2.7-.7,1.1-.7,1.1,2-.2,4.1.2,6.1-.9,0-1.8-.3-2.8-.3Zm6.4-10.6h0Zm-12,6.2h0Zm4-16.8Zm-.7,1.3c.4,0,.8.1.7.7s0,.8.4,1-.7.7-.8,1.2,0,.5-.4.4l-.6-.2h0v-.6h0A3.3,3.3,0,0,0,109.4,178.2Zm-1.5,1.3Zm-6.1,17.8c-.5-.4,0-1.1,0-1.7a21.7,21.7,0,0,1,1.1-4.2c.2-.6.5-1.2.1-1.8h.1c0-.2.1-.3.1-.4s1.3-1.7,2.2-2.2h.1c1.3.3,1.5.9,1.1,2.1s-1.1,2.1-.5,3.2h0c-.5,1.6-1.7,2.8-2.3,4.3h0l-.3.3h0C102.8,196.8,102.4,197.8,101.8,197.3Zm6.8,0h0c-.3-.2-.2-.6-.1-.9l.9-3.8h0a14.2,14.2,0,0,0,1.1-3.5h0a17.5,17.5,0,0,0,1.7-4.3.7.7,0,0,1,.6-.3h1.6c-1,2.1-.3,4.5-1.8,6.3h0l-.3.7a1.8,1.8,0,0,0-.7,1.5h0c-.9,1.4-1.7,2.8-2.5,4.2h-.5Z" style="fill:#d27b74"/><path d="M118.1,187.6Z" style="fill:#d27b74"/><path d="M165.7,118.4h0a3.9,3.9,0,0,0-1.1,1.5h0a11.9,11.9,0,0,0-2.2,3.3h0a12.3,12.3,0,0,0-2.7,4c-.3.3-.7.7-.4,1s.7,0,1-.3h0a22.5,22.5,0,0,0,9.1-6.4c1.2-1.1,2-2.4,1-3.9S167.3,116.1,165.7,118.4Z" style="fill:#d27b74"/><path d="M53,49.4a24.9,24.9,0,0,0,.1,7.7,7,7,0,0,0,.3,2.9h0a31.4,31.4,0,0,0,2.2,9.4,18.5,18.5,0,0,0,1.5,3.9h0a5,5,0,0,0,1,2.2h0v.7c-.1.7,0,1.3.7,1.5h0a2.1,2.1,0,0,1,.4.6h0c.1.8.2,1.6,1.2,1.9h0l.3.4a5,5,0,0,0,1.3,1.9h0A18.8,18.8,0,0,0,65,86.5h0c1.2,1.4,2.5,2.7,3.7,4a3.2,3.2,0,0,0,1.4,1.2h0a26,26,0,0,0,6.2,4.7l1,.7h0a21.6,21.6,0,0,0,6,3.2c.9,1,2.3,1.1,3.6,1.5h-.1a2.8,2.8,0,0,0,1.9.7h1l.4.3h.3l1.6.5,1.3.2a7.5,7.5,0,0,0,3.3.6h.3a4.4,4.4,0,0,0,2,.3H100a24.9,24.9,0,0,0,6.1,0h3.3a4,4,0,0,0,1.9-.3h.3a3.6,3.6,0,0,0,2.3-.3h0l3.2-.7a17.6,17.6,0,0,0,4.4-1.5l1.7-.7h0a10.3,10.3,0,0,0,3.8-1.8h0a5.3,5.3,0,0,0,2.1-1.1h0a9.2,9.2,0,0,0,3-1.8h0a5.1,5.1,0,0,0,2.1-1.5h0a9.7,9.7,0,0,0,2.8-2.2l2.9-2.6a4,4,0,0,0,1.5-1.4h0a23.3,23.3,0,0,0,2.8-3.6,2.1,2.1,0,0,1,1.2-1.1c.6-.4,1.1-.8,1.1-1.5h0a21.2,21.2,0,0,1,1.1-2.1c.8-1.6,2.2-2.9,2.2-4.8h0a8.4,8.4,0,0,0,1.9-4.3h0c1.4-1.6,1.3-3.6,1.7-5.5a2.5,2.5,0,0,0,.8-2.2h0a3.2,3.2,0,0,1,.3-1.7,4.3,4.3,0,0,0,.4-1.9h0a9.1,9.1,0,0,0,.3-4,44.5,44.5,0,0,0,0-7.3,4.3,4.3,0,0,0-.3-2.5,5,5,0,0,0-.4-2.7h0l-.3-.3c0-.6-.1-1.2-.1-1.7h0c-.7-2.4-1.3-4.9-2.1-7.2s-.9-3.5-2.2-4.9v-.3a9.1,9.1,0,0,0-2.1-3.7h0a2.9,2.9,0,0,0-1.1-1.8h0a8.6,8.6,0,0,0-2.1-2.9h0c-.6-1-1.1-2.1-2.3-2.5a2.4,2.4,0,0,0-1.4-1.8l-.8-.7h0a13,13,0,0,0-3.5-3.5,3.1,3.1,0,0,0-1.5-1c-.3-.7-.9-.7-1.4-.8h0c-1.8-1.5-3.6-3.2-5.9-3.9h0a1.4,1.4,0,0,0-1.5-.7h0l-.6-.4a2.1,2.1,0,0,0-1.5-.7h0a17,17,0,0,0-5-1.5,13.4,13.4,0,0,0-5.2-1.4h0c-.7-.9-1.7-.6-2.6-.8v.2h-.2c.1-.1.1-.1.1-.2a21.4,21.4,0,0,0-4.3-.7h0V0h-5.5V.3a15.5,15.5,0,0,0-4.3.7c0,.1,0,.1.1.2H97V1a4.1,4.1,0,0,0-1.9.4h0a5.7,5.7,0,0,0-2.2.4h0c-.8.3-1.7.1-2.5.7h0a2.9,2.9,0,0,0-2.2.7h0a7.3,7.3,0,0,0-2.9,1.1,1.9,1.9,0,0,0-1,.5h0a2.2,2.2,0,0,0-1.9.6h0L81,6.1h0a10.4,10.4,0,0,0-2.5,1.5L76.7,8.8c-1,.1-1.5.9-2.2,1.4l-1.4,1.1-2.2,1.8h0a23.8,23.8,0,0,0-5.2,5.3h0l-1.8,1.9h0a22.7,22.7,0,0,0-2.2,3.2l-1.3,1.6h0a2.7,2.7,0,0,0-1.1,1.8h0l-1.2,2.8a6.6,6.6,0,0,0-1.4,2.6c-.9.4-.7,1.2-.7,1.9s.1-.2.2-.2a.2.2,0,0,1-.2.2v1a5.3,5.3,0,0,0-.8,2.2h0a27.3,27.3,0,0,0-1.7,7.9h0a13.6,13.6,0,0,0-.4,4Zm92.8,33.5ZM54.9,43.4c.3-1.8,1-3.6,1-5.5v-.2a6.9,6.9,0,0,0,.5-1.3h.2a1.6,1.6,0,0,0,.5-2.2h.1a3.3,3.3,0,0,0,1.3-3.4h0c1.5-.5,1.4-2.1,2-3.2v-.4a3.3,3.3,0,0,0,1.9-3.2,7.3,7.3,0,0,0,2.4-3.4c1.1,0,1.4-.7,1.4-1.8a12.3,12.3,0,0,0,5.4-5.4,1.7,1.7,0,0,0,2-1.4c.8.2,1.2-.3,1.3-1.1h0l.2.2A2.2,2.2,0,0,0,77,9.7h.1c.7-.3,1.6-.3,1.8-1.3h0l.2.2a4.6,4.6,0,0,0,3.1-1.9h0c.3-.3.7-.3.9-.6h.5l.3-.3.8-.2h0A3,3,0,0,0,86.3,5h.4c1-.3,2.2-.2,2.8-1.4l.3.2c1.9-.3,3.8-.3,5.5-1.4V2.2H96a2.9,2.9,0,0,0,2.2-.4h0l2.8-.2h5.4a23,23,0,0,0,3.7.2h.3a4.2,4.2,0,0,0,1.9.3h.3a2.5,2.5,0,0,0,1.4.4l.5.4c1.2.3,2.3,1.1,3.6.6h.1c1.4,1.5,3.3,1.6,5.1,2.1h.4A2.7,2.7,0,0,0,126.8,7h0c1.6,1.8,3.9,2.7,5.9,3.9.2.2.5.1.7,0h0c0,.6.3.9,1,.7h0c.2.8.5,1.5,1.4,1.4a10.1,10.1,0,0,0,3.7,3.4.1.1,0,0,1,.1-.1h0c-.1.3,0,.4.3.4h-.1c.3.9.7,1.6,1.9,1.3h0a3.2,3.2,0,0,0,2.2,3.3h0a3.4,3.4,0,0,0,1.7,2.6h.2a1.7,1.7,0,0,0,1.1,2.1h0a3.6,3.6,0,0,0,1.5,2.7.1.1,0,0,1,.1.1c-.1.4.1.6.5.9h.3l.2.4v.9c1.1,3.5,2.2,7.1,3.5,10.5l.3.2c.2.6,0,1.2.3,1.8v.6a12,12,0,0,1,0,1.9c0,3.4.7,6.8,0,10.2a1.9,1.9,0,0,0,.5,1.7.1.1,0,0,1,.1-.1h0a5.2,5.2,0,0,0-.9,3.2,4.3,4.3,0,0,0,.1,1.6.9.9,0,0,1-.1.5h-.1a1.6,1.6,0,0,0-.3,2.1c-1.6,1.6-1.9,3.6-2,5.7a4.6,4.6,0,0,0-1.6,3.8h-.1a31.8,31.8,0,0,0-4,6.9c0,.1.1.1.1.2a2.4,2.4,0,0,0-1.8,2.4h-.1a7,7,0,0,0-3.1,3.7c-.7,0-1.1.3-1.1.9a4.6,4.6,0,0,0-2.7,2.6c-1.5.1-2.1,1.3-2.9,2.2h.1a2.4,2.4,0,0,0-2.4,1.6h0a3.7,3.7,0,0,0-3.1,2.1h0a1.6,1.6,0,0,0-2,1c0-.1,0-.1-.1-.1a3.9,3.9,0,0,0-3.4,1.6v.2c-1.3-.3-1.9-.1-2.3.8h-.2a4.7,4.7,0,0,0-3.4,1.2.1.1,0,0,1-.1-.1,2.1,2.1,0,0,0-1.9.2,5.8,5.8,0,0,1-1.8.4h-.5a6.9,6.9,0,0,1-2,.1c-3,0-5.9.5-8.9.3a9.2,9.2,0,0,1-3.3-.1l-1.2-.2H95.2a19.9,19.9,0,0,0-4.8-1.2h0c-.3-.9-1.1-.8-1.9-.7l-.2.3h0a.2.2,0,0,0-.3,0h0a5.2,5.2,0,0,0-3.6-1.4h0a17.6,17.6,0,0,0-6.1-3.1c0-.7-.5-.9-1.2-.7h.1a1.6,1.6,0,0,0-.5-.8c-2.1-1.6-4.2-3.2-6.2-4.9a1,1,0,0,0-1-.3h-.1A6.4,6.4,0,0,0,65.9,86h-.1a9.7,9.7,0,0,0-3.3-4.2h0a1.4,1.4,0,0,0-.9-1.6h0c.1-.7,0-1.1-.7-1.3h0A4.3,4.3,0,0,0,59,75.4h0a1.7,1.7,0,0,0-1-2.3h0c-.2-1-.4-2-.7-3s-.3-1.3-.9-1.6h0c-.4-2.3-1.2-4.5-1.5-6.7a8.3,8.3,0,0,1-.3-2.2,1.1,1.1,0,0,0-.3-.8.1.1,0,0,0-.1-.1,3.1,3.1,0,0,0-.3-1.9h0v-.3a8.5,8.5,0,0,0,0-1.6,30.9,30.9,0,0,0-.1-4.3,4.9,4.9,0,0,1,.1-1.2,10.2,10.2,0,0,0,.3-3l.2-.2c.1-.1.1-.3.2-.5A5.1,5.1,0,0,1,54.9,43.4Z" style="fill:#d27b74"/><path d="M56.7,60.8c.8.5,1.6,0,2.4,0s1.7-.8,1.7-2.1-1-1.9-1.5-2.8a6.5,6.5,0,0,1,.4-1.3h0c.6.1,1.4-.2,2,.3s-.1,3,.4,4.4h0a17.7,17.7,0,0,0,1.5,6.5,1.3,1.3,0,0,1-.7,1.4h0c-1.6-.2-2-.9-1.4-2.3s.1-3.1-1.5-3.1a3.4,3.4,0,0,0-2,.3h0c-1.3-.1-1.1.7-.9,1.5a3.6,3.6,0,0,0,.3,1.8c0,.9.1,1.6,1.1,1.5s-1.1-2.6-.3-4a5.3,5.3,0,0,1,2.5.1h0a3.3,3.3,0,0,1-.4,1.4,3.9,3.9,0,0,0,.8,3.9c.7.9,1.8,0,2.6-.6h0c2.2-.8.4-2,.3-3h0c-.1-.8-.3-1.5-.4-2.2s-.5-2.5-.7-3.7a9.1,9.1,0,0,0-.3-3.3h0a1.9,1.9,0,0,0-.1-1.3c-1.1-1-2.4-.7-3.7-.4h0a4.8,4.8,0,0,0,0,3.7h0c.5.6,1.3,1.3.6,2a1.6,1.6,0,0,1-2.3,0h0V46.2h0c.6-.8,1.5-.2,2.3-.3h0a1.6,1.6,0,0,1-.6,2c-.7.7-.7,3.8-.1,3.9s2.5.8,3.5-.3l.2-.2c.2-1.6.3-3.2.4-4.7a4.5,4.5,0,0,0,.4-2.3h0c.2-1.3.4-2.6.7-4-.8.3-1,.9-1.2,1.7-.8,2.9-.7,5.9-1.4,8.8-.6,0-1.4.5-1.8-.3a1.5,1.5,0,0,1,.2-1.6c1.2-1,1-2.2.9-3.5s-2.1-.7-3.3-.7-.8-.3-1,.4h0a63.5,63.5,0,0,0-.1,15.1Zm2.6-9.4h0Z" style="fill:#d27b74"/><path d="M57,42.9c.3,1.5,1.5.5,2.2.7s1.9,1,1.9-.7l.4-.3h0a1.5,1.5,0,0,0,.2-1.7c-.9-1-.4-1.8.2-2.7s1.6,1.1,2.1,1.9,1.1-1.4.5-1.8-2-1.7-3.5-.9h0a3.2,3.2,0,0,0-.5,4c.5.7.1,1.2-.6,1.4a2.1,2.1,0,0,1-2-.4l.6-2.8c.2-.2.2-.3.2-.4a6.7,6.7,0,0,0,.6-2.8l.3-.7h0a34.3,34.3,0,0,0,1.9-4.4l1.4-2.5,1.8.7a4.3,4.3,0,0,1,.4.7c-.3.8-1.1,1-1.8,1.3h0a2.9,2.9,0,0,0-1.1,2c-.1.4-.4.9-.1,1.4h0c.2,1.2,1.2.6,1.8.9h0c1.1,1,1.6.2,2.1-.7a74.9,74.9,0,0,1,4.2-7.2l2.3-2.7c1.7-2.1-.9-2.3-1.6-3.1s-1.5,0-1.9.8-1.1,2.4-1,3.8c.8-.4,1.4-1,1.1-2a1.6,1.6,0,0,1,.4-1.3h0l1-.5c.4.6,1.2.9,1.1,1.8h0c-.7.8-1.3,1.7-1.9,2.5h0c-1.9,1.9-2.7,4.4-4.1,6.6-.4.5-.5,1.2-1.3,1.1s-.9-1.3-.7-2.2,2.1-.8,2.2-2.1-.3-1.3-.8-1.9h0c-.8-.5-1.5-2.1-2.8-.7A6,6,0,0,0,61,30.4h0a14.6,14.6,0,0,0-1.8,4.5l-.3.7h0a2.6,2.6,0,0,0-.7,1.8h0c0,.3-.1.5-.1.7h0l-.3.8c-.5.5-.3,1.2-.5,1.8h0c-.5.7-.2,1.4-.3,2.2Zm4.1-1.5h0a.1.1,0,0,0,.1.1Z" style="fill:#d27b74"/><path d="M65.2,26.8l1.8.9c.8.3,1-.2,1-.9-2-.3-2.8-1.1-2.5-2.4a4.4,4.4,0,0,0,1.9-2.5h0l6.1-6.2,1-.8h0c1.3-.5,1.6.6,2,1.3s-.6,1.2-.9,1.1-2,.7-2.9,1.3-1.4,1.3-.2,2.2,1.6,2.4,3.2.8l2.5-2.3a24.9,24.9,0,0,0,5.1-3.6h0l1.9-.8c2-.8,2-.9.6-2.6h0c-.4-2.3-.4-2.3-2.4-1.2l-.9.5h0a1.2,1.2,0,0,0-1,1,1,1,0,0,1-1.5.8h0a3.2,3.2,0,0,0-.8-1.4c.5-.9,1.6-1.1,2.3-1.8l2.2-1.1,1-.4h0l4.8-1.8h0c1.2,0,2.4-1.1,3.6,0h0V8.4h0c-.6.4-1.2.8-1.9.4h-1c-2.3.1-2.8.5-2.6,1.7l.6,1.9c.4.7.9,1.1,1.6.4h0L95,11.4h.2l2.2-.4a3.1,3.1,0,0,0,1.9-.3H102c.5,0,1.1-.1,1.1-.6s.6-2.5-.3-3.5-3.3,0-4,.9h0l-.3.3c-1,.2-1.4-.3-1.5-1.3s.6-1.1,1.3-1.2a5.2,5.2,0,0,0,1.8-.3h7.5a11.9,11.9,0,0,0,3.3.3h0c1.6.4.2,1.5.4,2.2s-.7.3-1.1.3-.3-1.2-1.2-1h-.3a4.9,4.9,0,0,0-2.1-.4c-.5,0-1.2.1-1.1.8s-.5,2.2.3,3.3h0c1.1.6,2.4.2,3.5.4a3.2,3.2,0,0,0,1.9.3h.7a.7.7,0,0,0,.6.2l1.2.3h0a2.1,2.1,0,0,0,1.5.3h.3l2,.7h0c1-.2,2.2,1.8,2.9-.4h0c1.5-2.5,1.2-3.1-1.6-3.4-.7-.8-1.3-.2-1.8.3s0,.2-.1.2V9l-1.4-.2h0c-.5-.3-.4-.7-.3-1.1s.1-1,.7-1.2h2.1c.4.5,1.1.4,1.6.5h0a25.4,25.4,0,0,0,4.6,1.7,11.1,11.1,0,0,0,2.9,1.4h0c.5.9,2.8.6,1.9,2.6-.6.3-1.1.9-1.9.7s-.3-.8-.2-1.2-.6-.9-1.3-1h0c-.3,0-.6,0-.7-.3s-1.4-1.5-2.1,0l-.4,1.4c-.8,1.8-.1,2.6,2.5,3.2a7,7,0,0,0,2.9,1.9h0l1.5,1.1h0l2.9,2.4,1.1.9c.5.8,1,.7,1.5-.1h0l.7-.7c.5-.4,1.5-.5,1.2-1.5h0c-.8-2-2.7-2.1-4.4-2.6a2.3,2.3,0,0,1-.1-1.4l.4-.3h0c1.4-1.5,1.9.5,2.8.7h0l2.3,2.2h0l2.4,2.6h0l2.6,3.6h0c.2.8-.3,1.2-.7,1.7h0l-1,.4c-.1-1.6-.3-3.1-1.8-4.1h0c-.4-1.4-1.2-1-1.9-.3h0c-.9.9-2.6,1.3-1.1,3l.3.4h0a3.2,3.2,0,0,0,1.2,1.4h0l1.8,2.9c.8,1.1,1.1,2.6,2.2,3.6s.5,2,1.4,2.6.7.1,1.1-.1c2.9-.8,3-1,1.6-3.5a1.8,1.8,0,0,0-.5-.7h0c-.8-.2-1.6-.4-1.7-1.3s.5-.9.9-1.2,1.3-.1,1.9.3h0c.1.9.1,1.8,1.1,2.1h0a9.4,9.4,0,0,0,1.8,4.8h0a14.5,14.5,0,0,0,1.1,5v1h0l-2.2.5h0l-.7-1.1c.5-.4.9-.7.7-1.4s.3-1.8-.4-2.5h0c-.3-.3-.3-1.1-1-.8a3.1,3.1,0,0,0-2,.7h0c-2,.7-.3,1.9-.3,2.9a17,17,0,0,1,.4,2.2h0c.2.8.3,1.7.5,2.5s.1.5.2.8-.1,3.4.4,5.1h0a3.8,3.8,0,0,0,4,.2h0c.1-1.2.4-2.5-.3-3.7s0,.1-.1.2h0v-.2c-.7-.7-1.3-1.4,0-2.1h0c.6.1,1.3-.2,1.7.5h0a114.2,114.2,0,0,1,.1,11.7c-.1.7.1,1.6-.8,1.8a1.7,1.7,0,0,1-2.1-.5c-.2-1.2,1.1-1.4,1.4-2.3a3.3,3.3,0,0,0,.1-2.9h0a3.5,3.5,0,0,0-3.9-.1l-.2.2c-.5,1.6-.2,3.3-.4,5h0a3.1,3.1,0,0,0-.3,1.9,7.1,7.1,0,0,0-.7,3.2h0c-1.3,2.4-1,3.3,1,3.8h0c1.2,1,2,.6,2.2-.8s.8-1.1.7-1.9h0c.1-.9-1.7-1.5-.3-2.6h2.1c0,.6.1,1.2.1,1.8h0c-.6.5.1,1-.1,1.4s-.7.3-.6.8a67.2,67.2,0,0,1-3.5,8.8c-.4.8-.9,2-2.1.6h0a2.2,2.2,0,0,1-.3-1.4c1.2-.5,2.3-1.1,2.3-2.5h0c.2-.7,1.3-1.3,0-1.9h0c-1-.5-2-1.5-3.3-.6h0l-3.4,6.3h0l-1.6,2h0c-.4.6-1.2,1-1.2,1.8s-1.8,1.2-.4,2.1h0c2.1,2.6,2.3,2.6,4-.1.1,0,.1-.1.1-.2h0c1-.4.4-1.2.3-1.8h0c.5-1.2,1.3-.6,2.1-.4a1.3,1.3,0,0,1,.4,1.4c-.6.2-.8.7-1,1.2h0c-.8,1.4-2.4,2.2-2.7,3.9a5.1,5.1,0,0,0-2.6,2.2c-.4.4-1.2.4-1.3,1.1l-.4.4c-.9.6-1.8,1.8-2.9.1h0c-.9-1.3.4-1.4,1-1.5s1.3-.1,1.6-.8l1.2-1c1.2-.8.9-1.4-.1-1.9h0c-1.9-2.1-2.1-1.9-3.6-.3l-1.2,1c-1.6,1.3-3.3,2.5-5,3.7h0l-3.1,1.6c-.9.4-1.5,1-.6,2h0a3.7,3.7,0,0,0,.7,2.3h0a5.5,5.5,0,0,0,3.3-1.2c.6-.1.7-.5.8-1s.7-.9,1.4-.8h0c1.1,1.4.7,2.3-.9,2.9l-2,1.1-4,1.8-1.1.3c-1.6.2-3.1,1.2-4.7,1.1a2.5,2.5,0,0,1-.4-.7c-.1-1,0-2.3,1.4-1.7a3.7,3.7,0,0,0,3.7-.5c.9-.2.9-.7.3-1.3h0a7.7,7.7,0,0,0-.7-1.6c0-1.1-.6-1.2-1.4-.8a32.9,32.9,0,0,1-4.4,1.6c-.7,0-1.5-.2-2.1.3h0c-.7.6-1.5.1-2.2.4h-.4a3.1,3.1,0,0,0-1.9.3h-.3c-.6,0-1.3-.3-1.8.4h0c-.4,1.3-1,2.5.3,3.6H109a1,1,0,0,0,1.1-1.1h0c2.1-.4,1.7,1,1.6,2.1h0l-.8.2h0c-.8,0-1.7-.4-2.5.2h0a86.8,86.8,0,0,1-10.2.1H97.1V98.5h0c1-1,1.5.3,2.2.5h0c.6.4,1.2.2,1.9.2s.1-.1.2-.1h-.2a2.5,2.5,0,0,0,1.7-.1,3.4,3.4,0,0,0,.1-3.5h0c-.3-.5-.7-.4-1.1-.4l-5.9-.7c-.5-.5-1.1-.4-1.8-.4h-.7c-.3-.7-1.1-.1-1.5-.7a3.8,3.8,0,0,0-2.1-.7h0c-.7-.4-1.5-.4-1.5.5s-2,1.9-.4,3.2h0l1.9.6a1.7,1.7,0,0,0,1.4,0c.5-.2,1-.6,1.5,0a3.5,3.5,0,0,1-.4,2.2c-1.5.2-2.8-1.1-4.3-1l-1.2-.4h0a38.1,38.1,0,0,0-5-2.3c-1.1-.6-2.5-.8-2.5-2.4L80,92h0c.6-.2,1.2-.2,1.3.4s2,2.1,3.4,2.5h0c.2.2.5.3.7-.1a4.7,4.7,0,0,0,1.1-2.5c.4-1.3-.9-1-1.4-1.4a14.6,14.6,0,0,0-3.3-2.2c-.6-.4-1-1.1-1.8-1.1l-.8-.7-1.4-1.1h0a12.9,12.9,0,0,1-1.7-1.6c-1-1.3-2-1.3-3-.1h0a1.2,1.2,0,0,0-1,1c-.7.6-.4,1,.2,1.4h0c.7,1.9,2.6,1.6,4,2.2a1.1,1.1,0,0,1,.1,1.1c-1.4,1.3-1.7,1.3-3.8-.7h0a7.5,7.5,0,0,0-2.5-2.5h0A10.3,10.3,0,0,0,67.6,84a6.9,6.9,0,0,0-1.7-2.7c-.6-.6-.7-1.1,0-1.7h0c.7,0,1.4-.9,2.1,0a3,3,0,0,0,1.1,3.3h0c.2.7.8.8,1.4.8h0c1,0,1.3-.9,1.9-1.5a1,1,0,0,0,0-1.6c-1.3-1.2-1.9-2.9-3-4.2A16.4,16.4,0,0,1,68,74.2c-.4-.6-.7-1.3-1.1-2h0l-.9-2c-.4-.8-.9-1.1-1.6-.4h0c-1.1.1-2.4.5-2.4,1.3s.5,2.8,1.9,3.4.9.5,1,1.1h0l-.9.8c-.5.2-1,.5-1.5-.1h0a6.2,6.2,0,0,0-1-2.2h0a61.4,61.4,0,0,0-3-7c-.7.4-.4,1.1-.2,1.6A38.1,38.1,0,0,0,61,75.3c1.2,2.9,1.2,2.9,3,2.1a3.5,3.5,0,0,0,1.9-1c.7-.6.3-1-.1-1.5h0l-.6-1.1c-.2-.9-1.1-.6-1.5-.9h0c-.8-1.5-.4-2.2,1.3-2.3l1.5,2.5c.3.6.4,1.4,1,1.8h0a7.1,7.1,0,0,0,1.6,2.6,14.5,14.5,0,0,0,2.5,3.6.4.4,0,0,0,.1.3l-1.2,1.4-.7-.3h0c-1-1,0-2.8-1.4-3.7s-1.3-1.3-3.3.4h0a1.6,1.6,0,0,0-.2,2.6l1.9,2.3c.7,1.4,2,2.3,3,3.5a9.2,9.2,0,0,0,2.5,2.3h0A5.7,5.7,0,0,0,73.4,91c1.8,1.5,2.2,1.4,3.4-.7h0a3.8,3.8,0,0,0,1-1.2c0-.8-.5-1-1.1-1.2h0c-.6-.1-.7-1.3-1.7-.9s-1.5-.2-1.9-.8-.1-.9.3-1.1h0c.9-.6,1.6-.8,2.3.2a10.1,10.1,0,0,0,1.3.9,5.2,5.2,0,0,0,1.8,1.5h0l.4.3h0L81,89.2h0a8.5,8.5,0,0,0,3.7,2.1.5.5,0,0,0,.6.4h0a1.6,1.6,0,0,1-.9,2.2h0c-.6-.4-1.4-.5-1.5-1.2s-1.2-1.5-2.2-1.9h0c-1.4-.4-1.3.9-1.8,1.6h0c-1.2,1.1-1.3,2,.3,2.8A5.8,5.8,0,0,0,81,96h0a15.5,15.5,0,0,0,5.1,2.2h0a1.3,1.3,0,0,0,1,.4h0a19,19,0,0,0,5.6,1.7h0c1.3.1.6-.9.8-1.4h0c0-1,2.3-2.6-.7-3-.6-.4-1.3-.8-1.9,0H89.4c-.5-.2-1.2-.4-.9-1s.1-1.3,1-1.2h1.4c.5,1.3,1.8.4,2.5,1s1.3.7,2.1.5a5.9,5.9,0,0,0,2.3.4h0a3.6,3.6,0,0,0,1.8.2c.8.3,1.7,0,2.5.4h0v1.9h0a3.3,3.3,0,0,1-2.5-.5h0c-.3-1-1.1-.6-1.8-.7s-.8-.3-1.1,0-.4.7-.5,1.1h0c-.4.3-.3.7-.3,1.1s-.6,2.2,1.2,2.2h1.3a4.6,4.6,0,0,0,2.6.3h0a13.2,13.2,0,0,0,5.6.1.6.6,0,0,0,.7-.1h-.1a9.2,9.2,0,0,0,3.7-.3h.1c1.1-.1,2.5,0,1.7-1.9v-.4l-.2.3.2-.3c-.1-2.4-.3-2.6-1.8-2.1s-1.5-.2-1.9.7c-2.1.9-2.5.6-2.4-1.4h.3l1.8-.4h.4a14.5,14.5,0,0,0,4.1-.6h0a16.9,16.9,0,0,0,4.4-1.2,1.8,1.8,0,0,1,2,0c.2.6.8,1.1.2,1.6a1.5,1.5,0,0,1-1.7.2c-1.2-.7-2.3-.1-3.3.4h0c-.8,1.3.2,2.4.3,3.6s.7.6,1.2.4h0a23.7,23.7,0,0,0,5.9-1.8h0l.8-.3h0a20.4,20.4,0,0,0,4-1.8h0a19.1,19.1,0,0,0,3.2-1.6c.7-.4.9-.9.4-1.6s-.7-1.6-1.6-1.9h0c-.3-.3-.6-.6-1-.4h0c-1.7.1-2,1.4-2.6,2.5h0c-.6-.2-1,1.1-1.8.4s-.7-1.5,0-2.2h0a9.1,9.1,0,0,0,3.3-2.2h0c2-.3,3.1-1.8,4.4-3.1a2.3,2.3,0,0,0,1.7-1.1c.7-.9,1.4-.9,2.2-.1h0c.8,1.1-.5,1.4-.8,2H133a2.5,2.5,0,0,0-2,1.6c-.4.8.3,1.3.8,1.8A2.8,2.8,0,0,0,133,92c.4.6.9.3,1.2-.1l1.5-1.7h0l1.1-.7h0a1.9,1.9,0,0,0,1-.8c.8-.8,1.8-1.4,2.2-2.5h0c1.4-.9,2-2.4,2.9-3.7a4.6,4.6,0,0,0,.7-.7h0c.6-.8,2.2-1.7,0-2.6h0c-2.6-1.9-2.6-1.9-3.7.4h0c-.4.3-.4.7,0,1.1h0V81h0c-.7,1.2-1.4,2.2-2.9.8h0c-.4-.3-.4-.7,0-1.1h0a4.3,4.3,0,0,0,1.9-2.1l1.1-1.5h0a23,23,0,0,0,3.3-6.2c.7-.6,1.4.1,2.1,0v1.4l-1.1.8a2.5,2.5,0,0,0-1.5,2.9h0c.2,1.5,1.5,1.5,2.5,1.8s1.2-.7,1.6-1.3c1.8-2.8,2.5-5.9,3.6-8.9h0c-.1-.5.6-.9.3-1.5h0c1.5-3.2,1.2-4.1-1.8-4.3-.6-.1-1.5-.4-1.7.6s-1.2,1.9.1,2.7h0c.1,1.2-.1,2.2-1.6,2.2s-.7-1.4-.4-2.2v0c.2-.5-.1-1.1.3-1.6s.4-1.1.4-1.7h0c.8-2.4.7-4.8,1.2-7.2h1.6a3.8,3.8,0,0,1,.1,2.1h0l-.7.6h0c-.3,1.1-.7,2.1,0,3.2h0c.4.4,1,.2,1.5.3,2.7.3,2.7.3,2.8-2.5a108.4,108.4,0,0,0,0-11.4c-.1-.8.1-1.6-.7-2.2h-1.4a3.1,3.1,0,0,0-1.9.3h0a2.5,2.5,0,0,0,.4,3.8h0c-.1.8.8,1.9-.9,2.1s-1.4-.5-1.2-1.4a8.2,8.2,0,0,0-.4-3.5h0c.1-.4.1-.8-.3-1h0c-.3-1.6-.4-3.3-.8-4.9s.2-1.6,1.1-2,.7.8,1,1.2h0a.4.4,0,0,0,.1.3v.7h0a1.5,1.5,0,0,0-.4,2.1c0,.1,0,.1.1.2.1,2.3,1.6,1,2.6,1h0c.8-.2,2.4.6,1.8-1.4a2.6,2.6,0,0,0-.4-1.9h0a13.8,13.8,0,0,0-1.5-4.3c-.3-1.3-.7-2.5-1.1-3.7s-.2-1.2-1-.9a3.2,3.2,0,0,0-1.1-3.1h0c-1.4-1.8-2.3.2-3.3.6s-.6,1.5-.1,2.4.5,1.5,1.6,1.1,1.4,1.6,0,2.5h0c-.7.1-1.2,0-1.5-.8l-1-1.8h0a8.1,8.1,0,0,0-1.9-2.9,7.1,7.1,0,0,0-2.4-3.3h0c-.1-.8-1.1-1.1-1.2-2l1.2-1.1h.8c.1.6,1,.9.8,1.7a2.7,2.7,0,0,0,1.2,2.6c1.5.8,2.2-.7,3.2-1.1s.9-.8.4-1.5a19.7,19.7,0,0,0-3.3-4.3,15.8,15.8,0,0,0-2.8-3,7.7,7.7,0,0,0-2.3-2.1h0l-1.7-1.6c-.8-.6-1.3-.5-1.6.4h0l-.7.8h0c-.6.8-2,1.7-.1,2.6h0c.5.5.9,1.2,1.7,1s1.4.5,2,.9h0v.8h0c-.9,1-1.8,1-2.8,0h0c-.6-1-1.8-1.2-2.6-2a2.7,2.7,0,0,0-1.8-1.5,6.4,6.4,0,0,0-2.5-1.5h0a2.1,2.1,0,0,0-1.5-.9c-1.2-.4-1.5-1.1-1-2.2h0c1.3-.6,2.4-.5,2.7,1.2a1.1,1.1,0,0,0,1.2.9c1.4,1.2,1.7,1.1,2.6-.7s1.4-2.2-.8-3.3l-1-.4h0a10.4,10.4,0,0,0-3.6-1.9h0c-1.3-.4-2.4-1.2-3.7-1.3h0l-2.1-.5h0c-.4-.6-1.1-.3-1.6-.6h-.6c-1.7-.8-1.4.6-1.6,1.5s-.3.7-.3,1.1.6,1.8,1.8,1.8h0a1.5,1.5,0,0,0,1.9-.3h0c.8.3,2.2,0,1.7,1.7s-.4.8-1,.8h0a6.3,6.3,0,0,0-2.9-1h0c-.6-.4-1.4.1-1.9-.5h0c-.5-.5-1.2-.3-1.8-.3h0a1.4,1.4,0,0,0-1.4-.3h-1.8a1.7,1.7,0,0,0-1.3-.4c-.8,0-1.3-.3-1.3-1.1s.8-1,1.4-1h.8l.7,1.1h0c1.1.3,2.2,1.1,3-.4h0a18,18,0,0,1,.5-1.9c.5-1.5-.1-1.9-1.6-1.8h0a2.8,2.8,0,0,0-1.8-.3h0l-1-.2h-.1a31.5,31.5,0,0,0-9.2.2h0l-2.9.4c-1.6,1.3-.3,2.8.2,3.9s1.7.4,2.7,0l.5-.6h0l.4-.2c.8-.1,1.8-.8,2.1.5s-.6,1.4-1.6,1.5l-2.5.3a5.2,5.2,0,0,0-1.8.3h0c-.5.6-1.4.1-1.8.8s-3.3.1-4.8,1-1-1.2-.9-2l1.3-.4h0l.7.3h0a2.9,2.9,0,0,0,3.4-.7h0c0-.2-.1-.5-.1-.7a4.4,4.4,0,0,0-.6-3h0c-1.8-.4-3.3.4-4.9,1.1a10,10,0,0,0-4.7,1.8h0l-1,.4a4.1,4.1,0,0,0-2.2,1h0a5.4,5.4,0,0,0-2.6,1.6.4.4,0,0,0,0,.7h0l1.4,2.5c.5.8,1,.7,1.6.1A2.3,2.3,0,0,0,83,12.4h0c1.2-1,1.9-.7,2.5.7s-1.6,1.3-2.3,2h0c-2.3.8-4,2.4-5.8,3.8h0A25.2,25.2,0,0,0,74.9,21c-.4.5-.6.4-.9,0s-1.2-.7-1-1.4a2,2,0,0,1,1.6-1c3.4-.7,3.7-1.6,1.9-4.3-.8-1.1-1.5-1.4-2.4-.2h0a3.2,3.2,0,0,0-1.4,1.2h0a31.1,31.1,0,0,0-5.9,6.1h0A5.6,5.6,0,0,0,65.1,24h0C63.6,25.2,63.6,25.9,65.2,26.8ZM93,98.9h0v0Zm9.9,2.2h0c0-.1,0-.1-.1-.1h.1Zm47.4-58.5.2-.2C150.4,42.5,150.4,42.6,150.3,42.6Zm-33.4-37h0ZM80,13.4h0Z" style="fill:#d27b74"/><path d="M73.1,39.8c-.1.6.3.6.7.5s.9-.6,1.1.4h0a.8.8,0,0,0-.4.4h0a1.2,1.2,0,0,0-.7,1.4h0a5,5,0,0,0-.2,3.6c.3.7.6,1.3,1.4.5h0c.5-.3,1-1,1.7-.8s.3.7.3,1.1-.1,1.4.5,1.5.7-.9,1.1-1.4,2.1.2,3.1-.5,1.3-.1,1.2.8L82.3,54c-.1.9-.4,1.8.5,2.4h0c1.8.9,1.2,2.5,1.2,3.9a3.6,3.6,0,0,0-.8,1.8c-.1.2-.2.3-.2.4h0a2.4,2.4,0,0,0-.9,1.4h0c-.2.1-.3.2-.3.4s-.7,1.7,0,2.6a2,2,0,0,0,1.5,1.2,3.7,3.7,0,0,1,2.1,1.8h0c-.1.9-.4,1.9.8,2.4h0c-.3.9,2.6-.4,1,1.4h0c-1.1.5-.8,1.2-.3,1.9l1.4,1.5h0c.7,1.5.2,3.4,1.4,4.7a1,1,0,0,0,1,.7c3.4.6,6.8.8,10-.7h0a5.1,5.1,0,0,0,1.3-.2c2.2-1.1,4.4-.6,6.5.3l.9.2a9.8,9.8,0,0,0,6.3.9,2.9,2.9,0,0,0,2.5-2.8c.4-2.5,2-4.4,3.2-6.5a1.7,1.7,0,0,0,1.3-1.7,1.8,1.8,0,0,1,1.6-1.8h.4c2.4.4,3,0,2.6-2.3a58,58,0,0,0-1.7-7.2,3,3,0,0,1,.5-2.7c.6-.3,1.4-.4,1.5-1.3h0a1.7,1.7,0,0,0,.6-1.6c.3-3.2.7-6.3-.2-9.5-.2-.7-.7-1.6,0-2.4a4.7,4.7,0,0,0,2.6-2.2h0c1-1.2.3-2.5,0-3.7h0c-.7-3.7-3.2-5.7-6.6-6.9h0a23.1,23.1,0,0,0-14.6-4.4c-2.9.1-5.8.3-8.6-.7a11.1,11.1,0,0,0-3.6-.4,3.4,3.4,0,0,0-3.1,1.5c-.6.3-1.2-.3-1.8-.3h0a2.5,2.5,0,0,0-2.3-.7c-.5,0-.8.3-.3.8h0l.5.6c.4,1.2-.4,1-1.1,1.1s-1.9-1-2.5.3l-.8.7h0a3.1,3.1,0,0,1-1.5-1c-.2-.7-.8-.8-1.4-.8s-1.2-.9-1.8-.4.3.6.6.9h0l.8.7h0L85,30.9h0c.6,1.4-.2,1.7-1.3,1.5a24.2,24.2,0,0,1-3.6-1c-.1.9.5,1.3.9,1.7h0l.3.4c.3.7,0,1-.7.8a3.7,3.7,0,0,0-2.1.2c-.4.1-.9.2-.8.8s.3.7.8.7h0c0,.7-.5.4-.9.5s-2.3-.1-2.8,1.3h0A3.7,3.7,0,0,0,73.1,39.8Zm51.5,18.7Zm3-23.2ZM117.2,58.4c.8-.6,1.5-.2,2.3.1s2.3-.4,3.5-.1h.2c0,.1.1.2.1.4h-.1l-1.1.5c-1.5.4-2.9,0-4.4-.2s-.9.1-1.2.4S116.7,58.6,117.2,58.4Zm-25-2h.3a.7.7,0,0,1-.1.6h-.1c-1.4.2-2.6,1.4-4.2.8-.1-.3-.2-.5-.1-.6l.5-.2c.2,0,.4.1.5,0h.4C90.4,57.3,91.3,56.8,92.2,56.4Zm6.7,25ZM83.7,45.9h0Zm1,21.3Zm.8,1.9Zm42.4-26.2h0Z" style="fill:#d27b74"/></svg>